<svg width="305" height="79" viewBox="0 0 305 79" fill="none" xmlns="http://www.w3.org/2000/svg">
<path d="M111.525 7.40275e-06C107.676 -0.00274529 103.865 0.762217 100.317 2.24987C96.7685 3.73753 93.5547 5.91781 90.8646 8.66235C86.0045 3.69923 79.5072 0.656781 72.5724 0.096805C65.6376 -0.463171 58.7338 1.49716 53.1357 5.61579L65.1065 17.5493C66.9911 16.6934 69.0613 16.3231 71.1269 16.4724C73.1925 16.6217 75.1874 17.2858 76.9286 18.4038C78.6697 19.5218 80.1012 21.0579 81.0918 22.871C82.0823 24.6841 82.6002 26.7163 82.5978 28.7809V78.1717H99.0892V28.7949C99.0874 27.1731 99.4062 25.5669 100.028 24.068C100.649 22.5692 101.56 21.2071 102.71 20.0597C103.86 18.9122 105.225 18.002 106.728 17.3809C108.231 16.7599 109.842 16.4402 111.468 16.4402H121.721L138.198 7.40275e-06H111.525Z" fill="#FBFBF5"/>
<path d="M41.292 28.795V49.3768C41.292 52.6498 39.9877 55.7887 37.6662 58.103C35.3447 60.4173 32.196 61.7175 28.9128 61.7175C25.6297 61.7175 22.481 60.4173 20.1595 58.103C17.8379 55.7887 16.5337 52.6498 16.5337 49.3768V16.3982L0 32.9226V49.3768C0 57.0211 3.04617 64.3524 8.46837 69.7578C13.8906 75.1631 21.2447 78.1998 28.9128 78.1998C36.581 78.1998 43.9351 75.1631 49.3573 69.7578C54.7795 64.3524 57.8256 57.0211 57.8256 49.3768V28.795C57.8271 26.4249 58.5132 24.1053 59.8019 22.1136C61.0905 20.1219 62.9273 18.5422 65.0926 17.5634L53.1219 5.62988C49.4573 8.29412 46.4758 11.7835 44.4201 15.8139C42.3644 19.8442 41.2926 24.3016 41.292 28.8231" fill="#FBFBF5"/>
<path d="M132.354 78.2279C132.191 77.4665 132.111 76.6899 132.114 75.9114C131.444 76.7677 130.591 77.4641 129.616 77.9499C128.641 78.4356 127.57 78.6985 126.481 78.7193C124.382 78.5277 122.431 77.561 121.01 76.009C119.589 74.4571 118.802 72.4318 118.802 70.3307C118.802 68.2296 119.589 66.2043 121.01 64.6523C122.431 63.1004 124.382 62.1337 126.481 61.9421C128.525 61.9859 130.469 62.8338 131.889 64.3007V54.5854H134.593V74.2407C134.55 75.5939 134.64 76.9481 134.861 78.2841L132.354 78.2279ZM121.482 70.2815C121.482 73.9458 123.848 76.3466 126.749 76.3466C127.731 76.3231 128.697 76.0919 129.583 75.6683C130.47 75.2448 131.255 74.6386 131.889 73.8897V66.7436C130.564 65.2864 128.718 64.4044 126.749 64.2867C123.848 64.2867 121.482 66.6453 121.482 70.2815Z" fill="#FBFBF5"/>
<path d="M155.197 75.7287C153.086 77.6518 150.325 78.7097 147.466 78.6911C146.376 78.7356 145.29 78.5529 144.275 78.1545C143.261 77.7562 142.341 77.1511 141.575 76.378C140.808 75.6048 140.213 74.6807 139.825 73.6647C139.438 72.6487 139.268 71.5633 139.325 70.478C139.287 69.3615 139.477 68.2489 139.882 67.2074C140.287 66.1658 140.899 65.2169 141.682 64.4179C142.466 63.6188 143.403 62.9862 144.438 62.5583C145.473 62.1304 146.584 61.9159 147.705 61.9279C148.766 61.8757 149.825 62.0454 150.816 62.4263C151.807 62.8071 152.707 63.3906 153.458 64.1392C154.209 64.8878 154.794 65.7848 155.176 66.7726C155.558 67.7604 155.728 68.8169 155.676 69.8743C155.693 70.1454 155.693 70.4174 155.676 70.6886H142.058C142.034 71.4385 142.165 72.1853 142.444 72.8821C142.723 73.579 143.144 74.2108 143.679 74.7381C144.215 75.2653 144.854 75.6766 145.556 75.9461C146.259 76.2156 147.009 76.3376 147.761 76.3044C149.872 76.3018 151.896 75.4694 153.395 73.9879L155.197 75.7287ZM142.227 68.6248H152.705C152.705 65.6624 149.972 64.2445 147.564 64.2445C146.302 64.2413 145.079 64.677 144.104 65.4766C143.13 66.2762 142.466 67.3895 142.227 68.6248Z" fill="#FBFBF5"/>
<path d="M165.407 53.4341H188.87V58.1513H179.885V78.2278H174.435V58.1513H165.407V53.4341Z" fill="#FBFBF5"/>
<path d="M204.601 52.676C212.487 52.676 218.811 58.5586 218.811 65.7748C218.811 72.9911 212.487 78.986 204.601 78.986C196.714 78.986 190.518 73.1315 190.518 65.7748C190.518 58.4182 196.686 52.676 204.601 52.676ZM204.601 74.3249C206.853 74.3249 209.013 73.4329 210.606 71.8453C212.198 70.2576 213.093 68.1043 213.093 65.8591C213.093 63.6138 212.198 61.4605 210.606 59.8729C209.013 58.2852 206.853 57.3933 204.601 57.3933C202.349 57.3933 200.189 58.2852 198.596 59.8729C197.003 61.4605 196.109 63.6138 196.109 65.8591C196.109 68.1043 197.003 70.2576 198.596 71.8453C200.189 73.4329 202.349 74.3249 204.601 74.3249Z" fill="#FBFBF5"/>
<path d="M246.343 53.4341V69.3127C246.343 75.5041 241.541 78.9999 234.95 78.9999C228.359 78.9999 223.684 75.5041 223.684 69.3127V53.4341H229.162V69.3127C229.162 72.5839 231.796 74.3248 234.992 74.3248C238.189 74.3248 240.893 72.5839 240.893 69.3127V53.4341H246.343Z" fill="#FBFBF5"/>
<path d="M253.343 78.2278V53.4341H267.13C268.495 53.3334 269.865 53.5216 271.151 53.9861C272.438 54.4507 273.611 55.1812 274.594 56.1297C275.916 57.5103 276.652 59.3458 276.65 61.2541C276.625 62.7944 276.131 64.2907 275.233 65.5444C274.335 66.7982 273.076 67.7501 271.623 68.2738L277.453 78.2559H271.2L266.173 69.1443H258.779V78.2559L253.343 78.2278ZM258.793 58.025V64.5113H267.708C268.152 64.5301 268.596 64.4597 269.013 64.3043C269.43 64.1488 269.811 63.9116 270.134 63.6065C270.457 63.3014 270.716 62.9347 270.894 62.5282C271.072 62.1217 271.167 61.6837 271.172 61.2401C271.178 60.8399 271.104 60.4424 270.954 60.0712C270.804 59.6999 270.582 59.3622 270.299 59.078C269.913 58.6936 269.446 58.3987 268.932 58.2143C268.419 58.0299 267.871 57.9605 267.327 58.011L258.793 58.025Z" fill="#FBFBF5"/>
<path d="M300.268 59.8082C297.707 58.0478 294.662 57.1209 291.551 57.1547C289.072 57.1547 286.861 58.0673 286.861 60.1873C286.861 62.3072 290.143 62.5459 293.368 62.8126C297.902 63.1215 304.986 63.641 304.986 70.4782C304.986 76.5853 299.888 78.9861 293.72 78.9861C288.72 79.0372 283.868 77.2987 280.045 74.0863L283.129 70.3659C286.082 72.9656 289.853 74.4553 293.79 74.5777C296.945 74.5777 299.423 73.3563 299.423 71.0397C299.423 68.7232 296.874 68.1195 293.142 67.8107C287.692 67.4737 281.298 66.856 281.298 60.5523C281.298 54.5574 286.932 52.6902 291.579 52.6902C295.752 52.6512 299.85 53.7954 303.395 55.9895L300.268 59.8082Z" fill="#FBFBF5"/>
<path d="M133.861 28.2896V40.8268C133.819 42.2697 133.918 43.7132 134.157 45.1369H131.579C131.406 44.2868 131.321 43.4211 131.326 42.5536C130.591 43.4986 129.653 44.2668 128.58 44.8014C127.508 45.3361 126.328 45.6235 125.129 45.6423C121.425 45.6423 118.566 43.1573 118.566 39.7177V28.3036H121.482V39.7177C121.517 40.2108 121.651 40.6919 121.876 41.1324C122.101 41.5729 122.413 41.9638 122.792 42.282C123.172 42.6002 123.612 42.8391 124.086 42.9847C124.56 43.1302 125.058 43.1794 125.552 43.1293C126.613 43.0777 127.651 42.8005 128.596 42.3162C129.54 41.8319 130.371 41.1518 131.03 40.3214V28.3317L133.861 28.2896Z" fill="#FBFBF5"/>
<path d="M140.268 45.1369V32.5014C140.265 31.0849 140.109 29.673 139.804 28.2895H142.437C142.679 29.1304 142.811 29.9985 142.832 30.8728C143.571 29.9191 144.515 29.1428 145.594 28.601C146.674 28.0592 147.862 27.7656 149.07 27.742C149.897 27.6826 150.727 27.7923 151.51 28.0642C152.293 28.3361 153.011 28.7646 153.622 29.3233C154.232 29.882 154.722 30.5592 155.061 31.3133C155.399 32.0675 155.58 32.8826 155.591 33.7088V45.1228H152.774V33.7088C152.743 33.2126 152.611 32.7279 152.388 32.2835C152.164 31.839 151.854 31.444 151.474 31.1217C151.094 30.7995 150.653 30.5567 150.177 30.4078C149.702 30.2589 149.201 30.207 148.704 30.2551C147.643 30.3039 146.604 30.5799 145.658 31.0644C144.713 31.5489 143.884 32.2305 143.226 33.0629V45.0527L140.268 45.1369Z" fill="#FBFBF5"/>
<path d="M163.126 20.3853C163.366 20.3721 163.606 20.4064 163.832 20.4862C164.059 20.5661 164.267 20.6899 164.445 20.8504C164.623 21.011 164.768 21.2052 164.87 21.4218C164.972 21.6384 165.03 21.873 165.041 22.1122C165.032 22.352 164.975 22.5876 164.874 22.805C164.772 23.0225 164.628 23.2174 164.449 23.3784C164.271 23.5393 164.061 23.663 163.834 23.7421C163.607 23.8213 163.366 23.8542 163.126 23.839C162.888 23.8543 162.649 23.8211 162.424 23.7415C162.199 23.662 161.993 23.5376 161.818 23.3761C161.643 23.2146 161.502 23.0193 161.405 22.802C161.308 22.5847 161.256 22.35 161.253 22.1122C161.26 21.8756 161.315 21.6427 161.413 21.4272C161.511 21.2118 161.652 21.018 161.826 20.8573C162.001 20.6965 162.205 20.572 162.429 20.491C162.652 20.41 162.889 20.374 163.126 20.3853ZM161.718 28.2895H164.534V45.1369H161.718V28.2895Z" fill="#FBFBF5"/>
<path d="M186.04 28.2896L178.618 45.1369H176.097L168.703 28.2896H171.942L177.322 41.2199H177.533L183.082 28.2896H186.04Z" fill="#FBFBF5"/>
<path d="M205.53 42.4693C203.277 44.5213 200.329 45.6494 197.277 45.6282C196.115 45.6768 194.955 45.4827 193.872 45.0583C192.789 44.6339 191.807 43.9886 190.989 43.1638C190.171 42.3389 189.535 41.3528 189.121 40.2686C188.708 39.1843 188.526 38.0259 188.588 36.8676C188.546 35.6757 188.747 34.4877 189.179 33.3755C189.611 32.2633 190.264 31.25 191.1 30.3969C191.936 29.5438 192.937 28.8687 194.043 28.4123C195.148 27.956 196.335 27.7279 197.531 27.742C198.653 27.6943 199.773 27.8795 200.82 28.286C201.867 28.6925 202.818 29.3112 203.612 30.1032C204.407 30.8951 205.027 31.8429 205.435 32.8865C205.843 33.9301 206.029 35.0467 205.981 36.1656C205.997 36.4509 205.997 36.7368 205.981 37.022H191.475C191.449 37.8223 191.589 38.6192 191.887 39.363C192.184 40.1067 192.633 40.7811 193.204 41.344C193.775 41.9068 194.457 42.3459 195.206 42.6338C195.956 42.9217 196.757 43.0521 197.559 43.0169C198.682 43.0224 199.795 42.807 200.834 42.383C201.873 41.9589 202.818 41.3347 203.615 40.5459L205.53 42.4693ZM191.7 34.8178H202.868C202.798 31.659 199.953 30.1567 197.39 30.1567C196.055 30.1649 194.765 30.6338 193.738 31.4835C192.711 32.3333 192.011 33.5116 191.757 34.8178" fill="#FBFBF5"/>
<path d="M211.009 45.1368V32.5013C211.01 31.0822 210.839 29.6681 210.502 28.2895H213.164C213.41 29.2393 213.542 30.2148 213.558 31.1956C214.713 29.4688 216.22 27.7419 218.712 27.7419C219.175 27.7077 219.64 27.7659 220.081 27.9129C220.521 28.06 220.927 28.293 221.276 28.5984L220.332 31.2237C219.658 30.7835 218.871 30.5448 218.065 30.5358C216.234 30.5358 214.896 32.1925 213.84 33.6245V45.1228L211.009 45.1368Z" fill="#FBFBF5"/>
<path d="M237.274 31.9538C235.341 30.8016 233.145 30.159 230.894 30.0865C228.909 30.0865 226.824 30.8025 226.824 32.5715C226.824 34.6213 229.641 34.8038 231.613 34.874C234.57 35.0144 239.57 35.2671 239.57 39.9703C239.57 43.8873 236.035 45.6844 231.641 45.6844C228.667 45.7042 225.763 44.7852 223.346 43.059L224.458 40.8969C226.521 42.4221 229.003 43.2797 231.57 43.3538C234.387 43.3538 236.654 42.3149 236.654 40.3073C236.654 37.9767 233.626 37.7521 231.57 37.6538C228.078 37.4432 223.937 37.1484 223.937 32.9506C223.937 29.0055 227.613 27.7419 230.81 27.7419C233.458 27.7811 236.052 28.4965 238.344 29.8198L237.274 31.9538Z" fill="#FBFBF5"/>
<path d="M245.78 20.3853C246.02 20.3721 246.26 20.4064 246.487 20.4862C246.713 20.5661 246.921 20.6899 247.099 20.8504C247.277 21.011 247.422 21.2052 247.524 21.4218C247.627 21.6384 247.685 21.873 247.696 22.1122C247.687 22.352 247.63 22.5876 247.528 22.805C247.426 23.0225 247.282 23.2174 247.103 23.3784C246.925 23.5393 246.716 23.663 246.489 23.7421C246.261 23.8213 246.021 23.8542 245.78 23.839C245.542 23.8543 245.303 23.8211 245.079 23.7415C244.854 23.662 244.647 23.5376 244.472 23.3761C244.297 23.2146 244.157 23.0193 244.059 22.802C243.962 22.5847 243.911 22.35 243.907 22.1122C243.914 21.8756 243.969 21.6427 244.067 21.4272C244.166 21.2118 244.306 21.018 244.481 20.8573C244.655 20.6965 244.86 20.572 245.083 20.491C245.306 20.41 245.543 20.374 245.78 20.3853ZM244.372 28.2895H247.189V45.1369H244.372V28.2895Z" fill="#FBFBF5"/>
<path d="M251.287 28.2894H254.597V23.1931H257.413V28.2894H262.554V30.5077H257.47V40.953C257.445 41.2622 257.489 41.573 257.599 41.8633C257.709 42.1535 257.881 42.4159 258.105 42.6319C258.328 42.8478 258.597 43.0119 258.891 43.1125C259.185 43.213 259.498 43.2474 259.807 43.2134C260.772 43.2131 261.727 43.0322 262.624 42.6799L262.976 44.9121C261.824 45.4739 260.555 45.7576 259.272 45.7405C258.637 45.7811 258.001 45.6847 257.407 45.4578C256.813 45.231 256.275 44.8789 255.829 44.4258C255.384 43.9726 255.042 43.429 254.827 42.8321C254.612 42.2352 254.529 41.5991 254.583 40.9671V30.5217H251.287V28.2894Z" fill="#FBFBF5"/>
<path d="M282.889 42.4693C280.636 44.5212 277.689 45.6494 274.637 45.6282C273.474 45.6768 272.314 45.4827 271.231 45.0583C270.148 44.6339 269.166 43.9886 268.348 43.1638C267.53 42.3389 266.894 41.3528 266.481 40.2685C266.067 39.1843 265.886 38.0259 265.947 36.8676C265.905 35.6769 266.106 34.4901 266.537 33.3788C266.968 32.2676 267.62 31.2549 268.455 30.402C269.289 29.5491 270.289 28.8737 271.392 28.4165C272.496 27.9593 273.681 27.7298 274.876 27.7419C275.999 27.6943 277.119 27.8795 278.165 28.286C279.212 28.6924 280.163 29.3112 280.957 30.1032C281.752 30.8951 282.373 31.8429 282.78 32.8865C283.188 33.93 283.374 35.0467 283.326 36.1656C283.343 36.4508 283.343 36.7368 283.326 37.022H268.848C268.822 37.8223 268.963 38.6192 269.26 39.363C269.558 40.1067 270.006 40.7811 270.577 41.344C271.148 41.9068 271.83 42.3459 272.58 42.6338C273.329 42.9217 274.13 43.0521 274.932 43.0169C276.055 43.0224 277.168 42.807 278.207 42.3829C279.246 41.9589 280.191 41.3347 280.988 40.5459L282.889 42.4693ZM269.06 34.8178H280.228C280.157 31.6589 277.312 30.1567 274.749 30.1567C273.415 30.1649 272.124 30.6337 271.097 31.4835C270.07 32.3333 269.37 33.5116 269.116 34.8178M279.129 20.2729L275.383 25.5097H272.792L275.848 20.2729H279.129Z" fill="#FBFBF5"/>
</svg>
